<svg width="357" height="56" viewBox="0 0 357 56" fill="none" xmlns="http://www.w3.org/2000/svg">
<path d="M15.2227 55.4062L15.2578 6.89062H11.0039C8.21484 6.89062 6.48047 8.26172 5.80078 11.0039H5.44922L0.175781 8.50781C1.55859 3.44531 5.16797 0.914062 11.0039 0.914062H37.3008V1.26562L34.6641 6.89062H22.2891L22.2539 52.2422L15.5742 55.4062H15.2227ZM45.5625 27.457C45.5625 33.4805 46.3594 38.0391 47.9531 41.1328C50.5547 46.1953 54 48.7266 58.2891 48.7266C62.625 48.7266 66.0703 46.1953 68.625 41.1328C70.2188 37.9688 71.0156 33.4102 71.0156 27.457C71.0156 21.5039 70.2188 16.9453 68.625 13.7812C66.0938 8.71875 62.6484 6.1875 58.2891 6.1875C53.9531 6.1875 50.5078 8.71875 47.9531 13.7812C46.3594 16.9453 45.5625 21.5039 45.5625 27.457ZM41.9062 43.875C39.6562 39.75 38.5312 34.2773 38.5312 27.457C38.5312 20.6367 39.6562 15.1641 41.9062 11.0391C45.8438 3.82031 51.3047 0.210938 58.2891 0.210938C65.2969 0.210938 70.7578 3.82031 74.6719 11.0391C76.9219 15.1875 78.0469 20.6602 78.0469 27.457C78.0469 34.2773 76.9219 39.75 74.6719 43.875C70.7578 51.0938 65.2969 54.7031 58.2891 54.7031C51.3047 54.7031 45.8438 51.0938 41.9062 43.875ZM98.4375 54C92.5781 54 89.6484 51.4922 89.6484 46.4766V27.457C89.6484 20.6367 90.7734 15.1641 93.0234 11.0391C96.9609 3.82031 102.422 0.210938 109.406 0.210938C116.414 0.210938 121.875 3.82031 125.789 11.0391C128.039 15.1641 129.164 20.6367 129.164 27.457C129.164 33.3398 128.016 38.5078 125.719 42.9609C121.922 50.3203 116.484 54 109.406 54H98.4375ZM109.406 48.0234C113.789 48.0234 117.211 45.4219 119.672 40.2188C121.312 36.75 122.133 32.4961 122.133 27.457C122.133 21.5273 121.336 16.9688 119.742 13.7812C117.211 8.71875 113.766 6.1875 109.406 6.1875C105.07 6.1875 101.625 8.71875 99.0703 13.7812C97.4766 16.9219 96.6797 21.4805 96.6797 27.457V46.4766C96.6797 47.5078 97.2656 48.0234 98.4375 48.0234H109.406ZM146.742 27.457C146.742 33.4805 147.539 38.0391 149.133 41.1328C151.734 46.1953 155.18 48.7266 159.469 48.7266C163.805 48.7266 167.25 46.1953 169.805 41.1328C171.398 37.9688 172.195 33.4102 172.195 27.457C172.195 21.5039 171.398 16.9453 169.805 13.7812C167.273 8.71875 163.828 6.1875 159.469 6.1875C155.133 6.1875 151.688 8.71875 149.133 13.7812C147.539 16.9453 146.742 21.5039 146.742 27.457ZM143.086 43.875C140.836 39.75 139.711 34.2773 139.711 27.457C139.711 20.6367 140.836 15.1641 143.086 11.0391C147.023 3.82031 152.484 0.210938 159.469 0.210938C166.477 0.210938 171.938 3.82031 175.852 11.0391C178.102 15.1875 179.227 20.6602 179.227 27.457C179.227 34.2773 178.102 39.75 175.852 43.875C171.938 51.0938 166.477 54.7031 159.469 54.7031C152.484 54.7031 147.023 51.0938 143.086 43.875ZM218.953 55.4062V27.457C218.953 20.6367 220.078 15.1641 222.328 11.0391C226.266 3.82031 231.727 0.210938 238.711 0.210938C245.719 0.210938 251.18 3.82031 255.094 11.0391C257.344 15.1875 258.469 20.6602 258.469 27.457C258.469 34.1602 257.344 39.6328 255.094 43.875C251.93 49.8281 247.805 53.6719 242.719 55.4062H242.367L239.73 50.168C243.902 48.1992 247.008 45.1875 249.047 41.1328C250.359 38.5312 251.133 34.9688 251.367 30.4453H225.984V52.2422L219.305 55.4062H218.953ZM226.055 24.4688H251.367C251.133 19.9688 250.359 16.4063 249.047 13.7812C246.516 8.71875 243.07 6.1875 238.711 6.1875C234.375 6.1875 230.93 8.71875 228.375 13.7812C227.062 16.4063 226.289 19.9688 226.055 24.4688ZM270.07 55.4062V27.457C270.07 20.6367 271.195 15.1641 273.445 11.0391C277.383 3.82031 282.844 0.210938 289.828 0.210938C295.664 0.210938 300.27 2.36719 303.645 6.67969C306.434 10.2422 307.828 14.2383 307.828 18.668C307.828 22.6992 306.41 26.4609 303.574 29.9531C300.059 34.2656 294.891 36.4219 288.07 36.4219H277.102V52.2422L270.422 55.4062H270.07ZM277.102 30.4453H288.07C292.477 30.4453 295.629 29.3672 297.527 27.2109C299.707 24.7266 300.797 21.8789 300.797 18.668C300.797 14.8711 299.672 11.8008 297.422 9.45703C295.312 7.27734 292.781 6.1875 289.828 6.1875C285.516 6.1875 282.07 8.71875 279.492 13.7812C277.898 16.9219 277.102 21.4805 277.102 27.457V30.4453ZM318.375 55.4062V27.457C318.375 20.6367 319.5 15.1641 321.75 11.0391C325.688 3.82031 331.148 0.210938 338.133 0.210938C343.969 0.210938 348.574 2.36719 351.949 6.67969C354.738 10.2422 356.133 14.2383 356.133 18.668C356.133 22.6992 354.715 26.4609 351.879 29.9531C348.363 34.2656 343.195 36.4219 336.375 36.4219H325.406V52.2422L318.727 55.4062H318.375ZM325.406 30.4453H336.375C340.781 30.4453 343.934 29.3672 345.832 27.2109C348.012 24.7266 349.102 21.8789 349.102 18.668C349.102 14.8711 347.977 11.8008 345.727 9.45703C343.617 7.27734 341.086 6.1875 338.133 6.1875C333.82 6.1875 330.375 8.71875 327.797 13.7812C326.203 16.9219 325.406 21.4805 325.406 27.457V30.4453Z" fill="white"/>
</svg>
